<?xml version="1.0" standalone="no"?>
<!DOCTYPE svg PUBLIC "-//W3C//DTD SVG 20010904//EN"
 "http://www.w3.org/TR/2001/REC-SVG-20010904/DTD/svg10.dtd">
<svg version="1.0" xmlns="http://www.w3.org/2000/svg"
 width="300.000000pt" height="225.000000pt" viewBox="0 0 300.000000 225.000000"
 preserveAspectRatio="xMidYMid meet">
<metadata>
Created by potrace 1.10, written by Peter Selinger 2001-2011
</metadata>
<g transform="translate(0.000000,225.000000) scale(0.100000,-0.100000)"
fill="#000000" stroke="none">
<path d="M235 2223 c-98 -62 -139 -126 -138 -213 0 -54 33 -153 59 -175 6 -5
37 -47 68 -92 31 -45 62 -85 67 -89 21 -13 18 3 -8 39 -14 20 -24 39 -21 42 3
3 43 -13 90 -35 46 -21 131 -51 189 -65 57 -14 122 -31 144 -38 22 -6 67 -12
100 -12 33 0 121 -4 195 -9 211 -13 354 16 396 79 79 121 -112 333 -371 415
-82 25 -214 50 -268 50 -50 0 -93 -23 -112 -60 -19 -37 -19 -64 1 -81 14 -12
21 -8 53 30 l37 43 59 -7 c94 -11 243 -52 322 -90 67 -33 205 -147 192 -160
-3 -3 -28 2 -55 10 -31 9 -90 15 -159 15 -178 0 -299 -36 -369 -107 l-34 -35
-58 12 c-88 18 -239 74 -292 109 -57 37 -119 96 -136 130 -53 105 6 212 134
246 106 28 116 75 16 74 -48 0 -70 -6 -101 -26z m145 -2 c-8 -5 -33 -12 -55
-15 -55 -10 -119 -49 -152 -93 -25 -32 -28 -45 -28 -107 0 -61 4 -77 29 -113
60 -89 205 -172 377 -216 132 -34 169 -39 163 -22 -9 23 13 50 65 78 69 38
166 57 297 57 120 0 193 -16 238 -51 36 -28 25 -37 -12 -10 -101 71 -395 63
-528 -15 -32 -19 -44 -32 -44 -49 0 -21 7 -25 48 -31 26 -5 141 -8 257 -9 205
0 211 1 260 25 91 46 78 118 -40 229 -107 100 -300 178 -487 196 -63 7 -68 6
-92 -18 -14 -15 -26 -35 -26 -47 0 -11 -5 -20 -11 -20 -6 0 -8 9 -4 23 12 39
35 67 61 73 64 16 253 -20 378 -73 157 -66 296 -204 296 -295 0 -95 -172 -135
-474 -108 -108 9 -140 9 -146 0 -6 -9 -10 -9 -16 2 -5 8 -49 21 -103 31 -352
67 -570 257 -496 435 28 66 90 118 164 138 55 15 104 18 81 5z m591 -504 c-6
-6 -11 -16 -11 -21 0 -6 5 -3 11 7 25 43 146 63 193 31 15 -9 27 -11 30 -5 7
12 56 -1 87 -22 l21 -15 -28 -19 c-23 -15 -48 -18 -140 -18 -62 0 -115 3 -118
6 -10 10 4 38 22 42 12 3 10 5 -5 6 -13 1 -27 -8 -34 -21 -10 -18 -8 -24 11
-40 22 -17 22 -18 2 -18 -11 0 -29 11 -40 25 -16 21 -21 22 -26 9 -5 -13 -18
-14 -78 -8 -40 3 -77 10 -82 14 -14 14 42 42 117 60 69 17 93 12 68 -13z"/>
<path d="M1135 2239 c102 -15 165 -37 165 -58 0 -10 6 -24 14 -30 18 -15 162
-38 269 -44 43 -3 81 -8 84 -11 11 -11 -109 -6 -221 9 -109 14 -156 33 -156
61 0 8 -15 21 -33 29 -42 17 -228 45 -298 45 l-54 -1 40 -21 c26 -14 55 -21
83 -19 24 1 79 -3 123 -10 75 -11 83 -14 122 -54 40 -40 47 -43 127 -54 194
-27 239 -29 260 -9 44 41 20 54 -125 68 -157 15 -175 20 -224 69 l-41 41 -97
-1 c-97 -1 -97 -2 -38 -10z"/>
<path d="M1616 2228 c-20 -28 -20 -42 -2 -57 11 -10 23 -8 53 7 21 11 53 23
70 27 32 6 33 6 27 -24 -9 -43 12 -48 101 -22 64 19 87 21 169 15 53 -4 96 -4
96 -1 0 4 -30 16 -67 27 -77 24 -110 21 -216 -17 -38 -14 -71 -23 -73 -20 -8
7 91 46 137 54 43 7 43 7 14 14 -66 15 -199 9 -241 -10 -23 -10 -45 -24 -48
-30 -4 -6 -12 -11 -18 -11 -18 0 13 30 51 50 l36 19 -37 1 c-27 0 -41 -6 -52
-22z"/>
<path d="M1947 2243 c18 -2 50 -2 70 0 21 2 7 4 -32 4 -38 0 -55 -2 -38 -4z"/>
<path d="M2102 2240 c-74 -8 -85 -15 -40 -25 48 -11 183 -69 247 -108 50 -30
69 -35 152 -41 146 -10 209 -18 205 -25 -4 -6 -146 1 -238 12 l-37 5 68 -68
c144 -144 171 -289 71 -374 -52 -43 -143 -85 -234 -106 -112 -27 -345 -29
-461 -5 -145 30 -268 104 -313 190 -20 38 -20 121 1 161 42 81 167 157 323
196 76 19 117 22 287 23 219 0 220 1 100 56 -63 29 -117 37 -128 19 -4 -6 8
-10 28 -10 19 0 40 -7 47 -15 11 -13 6 -15 -31 -16 -108 -3 -189 -9 -250 -18
-83 -13 -199 -49 -199 -61 0 -6 -11 -10 -25 -10 -14 0 -37 -10 -52 -22 -117
-99 -142 -138 -143 -221 0 -151 149 -266 400 -308 80 -14 302 -13 361 0 65 15
92 14 85 -4 -3 -8 -9 -23 -13 -32 -3 -10 13 4 37 30 77 87 280 170 535 219 61
12 112 23 114 25 31 23 -162 -9 -313 -52 -48 -15 -90 -25 -92 -23 -2 2 3 26
12 53 17 57 12 107 -17 173 -18 41 -75 123 -91 130 -5 2 -8 10 -8 18 0 13 13
14 78 9 65 -6 81 -4 95 9 17 18 14 41 -8 49 -7 3 -55 8 -106 12 -128 9 -192
22 -218 46 -12 11 -40 24 -64 28 -23 4 -41 13 -40 19 2 6 -9 15 -25 18 -41 10
-55 24 -41 40 6 8 10 13 8 13 -2 -1 -32 -5 -67 -9z"/>
<path d="M2356 2235 c10 -24 83 -53 151 -59 152 -15 190 -15 300 -6 164 15
193 20 193 37 0 9 -7 12 -17 9 -10 -3 -65 -10 -123 -17 -171 -19 -383 1 -493
46 -13 6 -16 4 -11 -10z"/>
<path d="M2461 2232 c65 -20 307 -27 427 -12 56 7 104 15 106 19 3 4 -126 7
-286 6 -259 0 -286 -1 -247 -13z"/>
<path d="M1911 2050 c-87 -13 -211 -58 -270 -98 -135 -92 -158 -197 -66 -300
75 -83 206 -133 387 -147 l86 -7 18 27 c11 17 20 53 22 90 9 132 -42 160 -296
160 -140 0 -155 -2 -168 -19 -7 -11 -17 -16 -21 -13 -12 12 22 38 63 47 96 23
321 1 387 -37 42 -25 61 -79 52 -153 -3 -30 -13 -66 -22 -79 l-16 -24 83 6
c219 17 389 100 421 205 11 37 10 50 -5 96 -19 62 -78 142 -154 209 l-53 47
-197 -1 c-108 -1 -221 -5 -251 -9z m400 -20 c49 0 129 -64 187 -150 87 -130
66 -210 -73 -279 -75 -36 -171 -62 -243 -64 l-55 -2 2 77 c4 135 -37 178 -197
204 -161 26 -290 14 -333 -32 -21 -23 -22 -26 -7 -41 15 -14 22 -14 65 -2 101
28 318 11 373 -30 23 -17 25 -25 25 -90 0 -53 -4 -74 -15 -82 -19 -13 -148 -4
-226 17 -165 42 -264 125 -264 219 0 157 278 274 619 259 57 -2 121 -4 142 -4z"/>
<path d="M1877 1711 c28 -4 60 -13 70 -21 11 -8 8 -5 -5 8 -18 17 -34 22 -70
21 l-47 -2 52 -6z"/>
<path d="M1830 1670 c-20 -7 -16 -8 20 -7 37 2 45 -1 44 -15 -2 -21 5 -22 29
-3 18 13 18 14 -2 24 -23 13 -55 13 -91 1z"/>
<path d="M140 1810 c0 -17 110 -169 130 -180 33 -18 33 -11 -1 29 -19 21 -54
66 -78 100 -44 62 -51 69 -51 51z"/>
<path d="M2895 1669 c-252 -48 -473 -137 -535 -217 -35 -44 -22 -46 24 -4 52
48 154 101 263 138 96 32 276 74 321 74 22 0 32 5 32 15 0 8 -1 15 -2 14 -2
-1 -48 -9 -103 -20z"/>
<path d="M764 1463 c-97 -160 -153 -219 -398 -424 -191 -159 -246 -218 -266
-289 -15 -53 -12 -76 14 -107 21 -24 26 -26 41 -13 12 10 15 22 10 46 -14 75
37 137 265 324 222 183 335 304 382 407 14 33 16 47 8 63 -15 28 -36 25 -56
-7z m31 -28 c-42 -101 -164 -233 -385 -415 -163 -134 -228 -197 -254 -248 -18
-36 -23 -88 -11 -117 8 -18 7 -19 -8 -6 -30 24 -22 89 18 151 40 62 43 65 255
240 194 159 309 280 353 370 32 68 59 88 32 25z"/>
<path d="M1388 1453 c-8 -10 -25 -45 -37 -78 -47 -127 -59 -142 -147 -183 -44
-20 -106 -48 -139 -62 -33 -13 -118 -53 -188 -88 -129 -64 -158 -89 -144 -126
10 -25 38 -19 195 40 213 81 217 83 221 78 4 -4 -61 -82 -128 -153 -17 -18
-31 -37 -31 -42 0 -5 -20 -18 -45 -29 -25 -11 -45 -25 -45 -31 0 -24 43 -84
72 -100 11 -6 42 4 110 35 114 54 244 85 407 96 100 8 129 13 143 28 18 18 18
19 1 34 -31 29 -155 25 -238 -6 -38 -14 -56 -24 -40 -21 17 2 85 8 153 11 89
5 122 4 122 -4 0 -8 -32 -12 -104 -12 -182 0 -348 -39 -483 -112 -40 -22 -73
-36 -73 -30 0 5 37 28 81 51 80 41 81 42 38 36 -98 -13 -109 -17 -119 -35 -6
-11 -16 -20 -22 -20 -6 0 -3 10 8 22 l19 21 -32 -6 c-19 -4 -33 -2 -33 3 0 6
15 10 33 10 29 0 77 32 77 52 0 2 19 24 41 48 23 24 69 78 102 119 33 42 63
75 67 74 15 -4 150 149 150 170 0 6 14 47 31 90 32 83 35 130 8 135 -8 1 -22
-5 -31 -15z m17 -55 c-10 -29 -29 -78 -42 -108 -27 -62 -123 -213 -131 -205
-3 2 8 24 23 47 65 97 94 156 147 301 19 49 21 20 3 -35z m-152 -228 c-13 -10
-58 -32 -100 -50 -104 -42 -314 -143 -309 -148 5 -4 154 49 235 84 60 27 61
27 61 16 0 -15 -387 -157 -398 -147 -12 11 202 123 373 195 55 23 111 50 125
60 32 23 43 14 13 -10z"/>
<path d="M213 1388 c-115 -77 -213 -181 -213 -225 1 -27 1 -27 15 -8 70 95
117 142 202 200 52 36 93 59 91 52 -3 -6 -33 -31 -67 -54 -77 -50 -159 -130
-208 -201 -43 -62 -34 -84 11 -27 61 78 152 167 188 186 44 22 44 26 -8 -87
-61 -133 -79 -229 -49 -254 23 -19 31 -6 60 95 15 50 55 145 91 214 36 68 63
128 61 134 -5 16 -39 -36 -96 -150 -62 -123 -91 -203 -91 -255 0 -21 -4 -38
-10 -38 -18 0 -11 59 16 138 28 83 125 278 154 309 17 19 16 19 -29 19 -39 1
-58 -7 -118 -48z"/>
<path d="M2814 1237 c-3 -8 -6 -74 -8 -148 -2 -113 -6 -143 -26 -194 -33 -86
-108 -205 -128 -205 -9 0 -53 16 -97 36 -44 20 -98 42 -120 49 -22 7 -54 20
-71 29 -31 16 -183 72 -354 131 -212 73 -298 108 -361 145 -74 45 -84 47 -98
21 -8 -14 -6 -25 9 -44 11 -14 20 -30 20 -37 0 -6 17 -18 38 -26 20 -9 96 -44
167 -79 276 -134 514 -218 680 -240 28 -3 71 -16 97 -27 l47 -21 -22 -31 c-12
-17 -32 -42 -45 -56 -36 -40 -84 -118 -80 -132 2 -6 32 24 66 68 33 43 77 97
96 120 l35 41 -82 33 c-45 19 -89 33 -99 32 -29 -5 -228 49 -357 96 -69 25
-200 83 -291 128 -91 45 -183 86 -205 90 -40 8 -40 8 -10 14 l30 6 -42 24
c-24 13 -43 27 -43 32 0 14 8 10 78 -37 49 -33 103 -56 197 -86 211 -67 573
-206 822 -315 15 -7 85 87 122 165 43 91 53 153 49 296 -2 69 0 125 3 125 23
0 25 -217 4 -308 -8 -34 -26 -86 -40 -115 l-26 -52 26 30 c78 91 114 206 98
307 -6 35 -9 65 -7 67 12 13 19 -20 22 -97 6 -134 -33 -216 -176 -372 -28 -30
-50 -55 -49 -56 6 -5 166 -72 235 -100 76 -30 82 -31 82 -13 0 13 -7 19 -21
19 -26 0 -208 76 -228 95 -11 11 -4 25 46 87 108 132 133 193 135 327 1 75 -2
94 -17 111 -10 11 -23 20 -29 20 -7 0 -17 14 -23 30 -12 31 -40 40 -49 17z"/>
<path d="M1294 1111 c-51 -53 -127 -136 -170 -186 -42 -49 -87 -101 -98 -113
l-21 -24 60 7 c124 14 291 63 385 112 l25 13 -26 0 c-14 0 -59 -11 -100 -26
-66 -22 -222 -64 -241 -64 -15 0 -8 27 13 51 11 13 64 70 116 127 115 124 153
170 153 188 0 8 -1 14 -2 13 -2 -1 -44 -44 -94 -98z"/>
<path d="M2978 996 c-10 -7 -18 -18 -18 -23 0 -15 29 -37 38 -29 4 4 -2 14
-12 22 -17 12 -18 14 -3 14 9 0 17 7 17 15 0 18 0 18 -22 1z"/>
<path d="M1825 943 c139 -73 337 -150 500 -193 185 -50 174 -41 -61 49 -177
68 -470 171 -482 171 -4 -1 16 -13 43 -27z"/>
<path d="M2590 528 c-44 -57 -89 -113 -100 -125 -18 -22 -18 -23 0 -23 10 0
30 17 45 38 72 96 139 172 151 172 16 0 214 -79 231 -93 16 -12 7 -28 -54 -96
-26 -30 -53 -68 -59 -86 -14 -39 -19 -315 -6 -315 5 0 13 71 17 157 l7 158 80
93 c44 51 79 94 77 96 -2 1 -33 13 -69 26 -36 12 -103 40 -149 61 -46 22 -85
39 -87 39 -1 0 -39 -46 -84 -102z"/>
<path d="M950 513 c-14 -3 -146 -34 -295 -69 -363 -87 -407 -96 -500 -96 -57
-1 -90 4 -114 16 -44 23 -53 11 -16 -21 28 -25 32 -25 150 -21 87 4 155 14
245 36 431 106 520 125 606 130 l91 4 73 -66 c39 -36 76 -66 81 -66 5 0 9 -4
9 -10 0 -21 -20 -8 -89 55 -39 35 -83 68 -98 71 -43 11 -165 -11 -473 -85
-157 -38 -319 -74 -360 -81 l-74 -12 32 -29 c28 -26 39 -29 90 -27 l57 2 -58
3 c-32 2 -55 8 -52 13 3 6 -2 8 -12 5 -10 -3 -4 1 12 9 17 8 38 15 48 16 9 0
140 30 290 66 149 36 284 67 298 69 15 3 46 9 70 14 59 14 119 13 145 -2 12
-7 45 -33 74 -59 28 -27 55 -48 59 -48 5 0 26 -14 47 -31 54 -43 70 -48 180
-54 54 -3 109 -12 125 -20 30 -16 53 -20 30 -6 -72 45 230 39 449 -9 47 -11
101 -26 120 -34 32 -14 33 -15 10 -17 -14 0 8 -7 49 -14 110 -20 113 -21 156
-64 22 -22 44 -40 48 -41 5 0 22 -9 38 -21 16 -11 39 -19 50 -17 44 6 -227
163 -357 207 -137 45 -208 54 -514 60 -301 7 -316 9 -362 49 -10 8 -15 19 -12
24 3 5 13 0 20 -11 24 -34 79 -41 309 -41 422 -1 620 -53 886 -233 88 -60 117
-70 79 -29 -59 63 -267 178 -399 222 -159 52 -240 62 -526 66 -143 2 -270 6
-283 9 -32 8 -118 68 -177 126 -27 26 -63 53 -78 58 -28 11 -127 13 -177 4z"/>
<path d="M2915 399 l-79 -93 -4 -153 c-3 -96 -1 -153 5 -153 12 0 23 103 23
211 0 84 -1 81 93 191 27 32 47 65 45 73 -2 11 -30 -16 -83 -76z"/>
<path d="M2 317 c3 -21 19 -29 82 -42 26 -6 28 -9 23 -43 -5 -32 -4 -34 5 -12
6 14 17 37 25 53 l14 27 -38 0 c-21 0 -56 9 -76 19 l-38 19 3 -21z"/>
<path d="M162 275 c3 -14 1 -25 -3 -25 -5 0 -9 -4 -9 -10 0 -14 27 -1 34 16 7
18 -3 44 -16 44 -6 0 -8 -11 -6 -25z"/>
<path d="M190 252 c0 -6 13 -20 30 -32 24 -17 41 -20 92 -17 l63 3 -66 2 c-57
2 -70 6 -93 28 -14 15 -26 22 -26 16z"/>
<path d="M0 197 c0 -11 58 -29 233 -72 243 -59 422 -101 495 -115 41 -7 42 -7
27 10 -9 10 -30 20 -48 24 -18 3 -150 34 -294 68 -190 45 -263 66 -263 76 0
11 -3 12 -13 4 -9 -8 -25 -8 -52 -1 -85 22 -85 22 -85 6z"/>
<path d="M1393 161 c14 -38 -8 -72 -74 -113 -27 -17 -47 -33 -45 -36 8 -7 94
57 120 90 23 30 24 34 10 60 -19 36 -25 36 -11 -1z"/>
<path d="M1700 180 c0 -6 10 -10 23 -10 12 0 33 -3 47 -6 18 -4 21 -3 10 4
-23 14 -80 23 -80 12z"/>
<path d="M2 155 c3 -20 2 -20 328 -101 126 -32 212 -48 270 -50 l85 -4 -210
50 c-231 55 -434 106 -460 116 -13 5 -16 2 -13 -11z"/>
<path d="M1175 144 c-17 -14 -35 -29 -41 -32 -18 -11 -64 -83 -64 -101 0 -9
10 3 21 27 17 33 67 84 118 119 2 2 2 5 0 8 -3 2 -18 -7 -34 -21z"/>
<path d="M2307 103 c18 -2 42 -15 55 -28 32 -35 44 -31 16 4 -19 25 -30 30
-63 29 -35 -1 -36 -2 -8 -5z"/>
</g>
</svg>
